<svg width="22" height="26" viewBox="0 0 22 26" fill="none" xmlns="http://www.w3.org/2000/svg">
<path d="M15.6014 0H15.7863C15.9347 1.83357 15.2349 3.20362 14.3843 4.19576C13.5497 5.18105 12.4069 6.13665 10.5585 5.99166C10.4352 4.18434 11.1362 2.91591 11.9856 1.92605C12.7734 1.00356 14.2176 0.182672 15.6014 0ZM21.1969 19.0847V19.1361C20.6774 20.7093 19.9364 22.0577 19.0322 23.309C18.2067 24.445 17.1952 25.9737 15.389 25.9737C13.8283 25.9737 12.7916 24.9702 11.1921 24.9428C9.50011 24.9154 8.56962 25.7819 7.02261 26H6.49515C5.35915 25.8356 4.44237 24.9359 3.77447 24.1253C1.80503 21.73 0.283142 18.636 0 14.6766V13.5132C0.119879 10.6795 1.49677 8.37553 3.32692 7.25895C4.2928 6.66526 5.6206 6.15949 7.09911 6.38554C7.73275 6.48373 8.3801 6.70065 8.94752 6.91529C9.48527 7.12194 10.1577 7.48843 10.7948 7.46902C11.2264 7.45646 11.6556 7.23155 12.0906 7.07285C13.3648 6.61274 14.6138 6.08528 16.2601 6.33303C18.2387 6.63215 19.643 7.51126 20.5107 8.86761C18.837 9.93282 17.5137 11.538 17.7398 14.2793C17.9407 16.7693 19.3884 18.2261 21.1969 19.0847Z" fill="white"/>
</svg>
