<svg width="21" height="21" viewBox="0 0 21 21" fill="none" xmlns="http://www.w3.org/2000/svg">
<g clip-path="url(#clip0_154_833)">
<path d="M4.92187 10.5C4.92187 9.45956 5.20853 8.4849 5.70654 7.65036V4.11038H2.16657C0.761578 5.93509 0 8.15891 0 10.5C0 12.8411 0.761578 15.0649 2.16657 16.8896H5.70654V13.3496C5.20853 12.5151 4.92187 11.5404 4.92187 10.5Z" fill="#FBBD00"/>
<path d="M10.5 16.0781L8.03906 18.5391L10.5 21C12.8411 21 15.0649 20.2384 16.8896 18.8334V15.2972H13.3534C12.5116 15.7971 11.5328 16.0781 10.5 16.0781Z" fill="#0F9D58"/>
<path d="M5.7066 13.3496L2.16663 16.8896C2.44695 17.2538 2.75053 17.5996 3.07545 17.9246C5.05864 19.9078 7.69541 21 10.5001 21V16.0781C8.4647 16.0781 6.68081 14.9822 5.7066 13.3496Z" fill="#31AA52"/>
<path d="M21 10.5C21.0001 9.86204 20.9425 9.22539 20.8281 8.5978L20.7357 8.09335H10.5V13.0152H15.4814C15.0048 13.9637 14.2663 14.7556 13.3534 15.2973L16.8896 18.8335C17.2538 18.5531 17.5995 18.2496 17.9246 17.9246C19.9078 15.9414 21 13.3046 21 10.5Z" fill="#3C79E6"/>
<path d="M14.4443 6.55565L14.8794 6.99066L18.3597 3.5104L17.9246 3.07539C15.9415 1.09221 13.3047 0 10.5 0L8.03906 2.46094L10.5 4.92188C11.9899 4.92188 13.3907 5.50208 14.4443 6.55565Z" fill="#CF2D48"/>
<path d="M10.5 4.92188V0C7.69533 0 5.05856 1.09221 3.07533 3.07535C2.75039 3.4004 2.44681 3.74614 2.1665 4.11038L5.70648 7.65036C6.68072 6.01781 8.46462 4.92188 10.5 4.92188Z" fill="#EB4132"/>
</g>
<defs>
<clipPath id="clip0_154_833">
<rect width="21" height="21" fill="white"/>
</clipPath>
</defs>
</svg>
